<?xml version="1.0" encoding="utf-8"?>
<!DOCTYPE svg
  PUBLIC '-//W3C//DTD SVG 1.0//EN'
  'http://www.w3.org/TR/2001/REC-SVG-20010904/DTD/svg10.dtd'>
<svg width="648" height="290" preserveAspectRatio="xMinYMin meet" viewBox="0 0 648 290" xmlns="http://www.w3.org/2000/svg" version="1.0" fill-rule="evenodd" xmlns:xlink="http://www.w3.org/1999/xlink">
	<title>...</title>
	<desc>...</desc>
	<clipPath id="clip">
		<rect x="0" y="0" width="648" height="290"/>
	</clipPath>
	<g id="group" transform="scale(1,-1) translate(0,-290)" style="clip-path: url(#clip)">
		<g transform="">
			<path d="M 60,89.105263 L 638,89.105263 Z" style="stroke: rgb(87%,87%,87%); stroke-linecap: butt; stroke-width: 1;"/>
			<text x="18.00390625" y="85.10526315789474" style="font-family: TNR; font-size: 12px;fill: rgb(0%,0%,0%); stroke:none;" transform="translate(0,170) scale(1,-1)">-$600k</text>
			<path d="M 60,129.315789 L 638,129.315789 Z" style="stroke: rgb(87%,87%,87%); stroke-linecap: butt; stroke-width: 1;"/>
			<text x="18.00390625" y="125.31578947368422" style="font-family: TNR; font-size: 12px;fill: rgb(0%,0%,0%); stroke:none;" transform="translate(0,250) scale(1,-1)">-$400k</text>
			<path d="M 60,169.526316 L 638,169.526316 Z" style="stroke: rgb(87%,87%,87%); stroke-linecap: butt; stroke-width: 1;"/>
			<text x="18.00390625" y="165.5263157894737" style="font-family: TNR; font-size: 12px;fill: rgb(0%,0%,0%); stroke:none;" transform="translate(0,331) scale(1,-1)">-$200k</text>
			<path d="M 60,209.736842 L 638,209.736842 Z" style="stroke: rgb(87%,87%,87%); stroke-linecap: butt; stroke-width: 1;"/>
			<text x="34.0" y="205.73684210526315" style="font-family: TNR; font-size: 12px;fill: rgb(0%,0%,0%); stroke:none;" transform="translate(0,411) scale(1,-1)">$0k</text>
			<path d="M 60,249.947368 L 638,249.947368 Z" style="stroke: rgb(87%,87%,87%); stroke-linecap: butt; stroke-width: 1;"/>
			<text x="22.0" y="245.94736842105263" style="font-family: TNR; font-size: 12px;fill: rgb(0%,0%,0%); stroke:none;" transform="translate(0,491) scale(1,-1)">$200k</text>
			<rect x="77" y="85.89487189968736" width="52" height="123.84197020557579" style="stroke: none; stroke-linecap: butt; stroke-width: 1; fill: rgb(34%,41%,44%); fill-rule: evenodd;"/>
			<path d="M 129,85.894872 L 159,85.894872 Z" style="stroke: rgb(50%,50%,50%); stroke-linecap: butt; stroke-width: 1;"/>
			<text x="85.6650390625" y="69.89487189968736" style="font-family: TNRB; font-size: 12px;fill: rgb(0%,0%,0%); stroke:none;" transform="translate(0,139) scale(1,-1)">-$616k</text>
			<text x="88.9990234375" y="45" style="font-family: TNR; font-size: 12px;fill: rgb(0%,0%,0%); stroke:none;" transform="translate(0,90) scale(1,-1)">Gross</text>
			<rect x="159" y="85.89487189968736" width="52" height="112.09665988245385" style="stroke: none; stroke-linecap: butt; stroke-width: 1; fill: rgb(13%,40%,53%); fill-rule: evenodd;"/>
			<path d="M 211,197.991532 L 241,197.991532 Z" style="stroke: rgb(50%,50%,50%); stroke-linecap: butt; stroke-width: 1;"/>
			<text x="166.244140625" y="216.73684210526315" style="font-family: TNRB; font-size: 12px;fill: rgb(0%,0%,0%); stroke:none;" transform="translate(0,433) scale(1,-1)">+$558k</text>
			<text x="160.5107421875" y="45" style="font-family: TNR; font-size: 12px;fill: rgb(0%,0%,0%); stroke:none;" transform="translate(0,90) scale(1,-1)">Taxes and</text>
			<text x="166.0068359375" y="30" style="font-family: TNR; font-size: 12px;fill: rgb(0%,0%,0%); stroke:none;" transform="translate(0,60) scale(1,-1)">benefits</text>
			<rect x="241" y="197.9915317821412" width="52" height="12.52021371785844" style="stroke: none; stroke-linecap: butt; stroke-width: 1; fill: rgb(13%,40%,53%); fill-rule: evenodd;"/>
			<path d="M 293,210.511745 L 323,210.511745 Z" style="stroke: rgb(50%,50%,50%); stroke-linecap: butt; stroke-width: 1;"/>
			<text x="251.244140625" y="217.51174549999965" style="font-family: TNRB; font-size: 12px;fill: rgb(0%,0%,0%); stroke:none;" transform="translate(0,435) scale(1,-1)">+$62k</text>
			<text x="249.6767578125" y="45" style="font-family: TNR; font-size: 12px;fill: rgb(0%,0%,0%); stroke:none;" transform="translate(0,90) scale(1,-1)">Retiree</text>
			<text x="252.33984375" y="30" style="font-family: TNR; font-size: 12px;fill: rgb(0%,0%,0%); stroke:none;" transform="translate(0,60) scale(1,-1)">health</text>
			<rect x="323" y="210.51174549999965" width="52" height="19.02003216228681" style="stroke: none; stroke-linecap: butt; stroke-width: 1; fill: rgb(13%,40%,53%); fill-rule: evenodd;"/>
			<path d="M 375,229.531778 L 405,229.531778 Z" style="stroke: rgb(50%,50%,50%); stroke-linecap: butt; stroke-width: 1;"/>
			<text x="333.244140625" y="236.53177766228646" style="font-family: TNRB; font-size: 12px;fill: rgb(0%,0%,0%); stroke:none;" transform="translate(0,473) scale(1,-1)">+$95k</text>
			<text x="323.5087890625" y="45" style="font-family: TNR; font-size: 12px;fill: rgb(0%,0%,0%); stroke:none;" transform="translate(0,90) scale(1,-1)">Navy state</text>
			<text x="341.669921875" y="30" style="font-family: TNR; font-size: 12px;fill: rgb(0%,0%,0%); stroke:none;" transform="translate(0,60) scale(1,-1)">tax</text>
			<rect x="405" y="229.53177766228646" width="52" height="3.28751142141067" style="stroke: none; stroke-linecap: butt; stroke-width: 1; fill: rgb(13%,40%,53%); fill-rule: evenodd;"/>
			<path d="M 457,232.819289 L 487,232.819289 Z" style="stroke: rgb(50%,50%,50%); stroke-linecap: butt; stroke-width: 1;"/>
			<text x="415.244140625" y="239.81928908369713" style="font-family: TNRB; font-size: 12px;fill: rgb(0%,0%,0%); stroke:none;" transform="translate(0,479) scale(1,-1)">+$16k</text>
			<text x="399.6669921875" y="45" style="font-family: TNR; font-size: 12px;fill: rgb(0%,0%,0%); stroke:none;" transform="translate(0,90) scale(1,-1)">Continuation</text>
			<text x="422.3369140625" y="30" style="font-family: TNR; font-size: 12px;fill: rgb(0%,0%,0%); stroke:none;" transform="translate(0,60) scale(1,-1)">pay</text>
			<rect x="487" y="215.58182844195198" width="52" height="17.237460641745145" style="stroke: none; stroke-linecap: butt; stroke-width: 1; fill: rgb(74%,47%,23%); fill-rule: evenodd;"/>
			<path d="M 539,215.581828 L 569,215.581828 Z" style="stroke: rgb(50%,50%,50%); stroke-linecap: butt; stroke-width: 1;"/>
			<text x="498.6650390625" y="239.81928908369713" style="font-family: TNRB; font-size: 12px;fill: rgb(0%,0%,0%); stroke:none;" transform="translate(0,479) scale(1,-1)">-$86k</text>
			<text x="490.1806640625" y="45" style="font-family: TNR; font-size: 12px;fill: rgb(0%,0%,0%); stroke:none;" transform="translate(0,90) scale(1,-1)">Later pay</text>
			<text x="495.33984375" y="30" style="font-family: TNR; font-size: 12px;fill: rgb(0%,0%,0%); stroke:none;" transform="translate(0,60) scale(1,-1)">penalty</text>
			<rect x="569" y="209.73684210526315" width="52" height="5.844986336688834" style="stroke: none; stroke-linecap: butt; stroke-width: 1; fill: rgb(34%,41%,44%); fill-rule: evenodd;"/>
			<text x="579.244140625" y="222.58182844195198" style="font-family: TNRB; font-size: 12px;fill: rgb(0%,0%,0%); stroke:none;" transform="translate(0,445) scale(1,-1)">+$29k</text>
			<text x="582.666015625" y="45" style="font-family: TNR; font-size: 12px;fill: rgb(0%,0%,0%); stroke:none;" transform="translate(0,90) scale(1,-1)">Final</text>
			<path d="M 60,209.736842 L 638,209.736842 Z" style="stroke: rgb(0%,0%,0%); stroke-linecap: butt; stroke-width: 1;"/>
			<text x="60" y="276" style="font-family: TNR; font-size: 12px;fill: rgb(0%,0%,0%); stroke:none;" transform="translate(0,552) scale(1,-1)">Present value at 10 years of service</text>
		</g>
	</g>
</svg>

